<?xml version="1.0" encoding="UTF-8" standalone="no"?>
<svg
   xmlns:dc="http://purl.org/dc/elements/1.1/"
   xmlns:cc="http://creativecommons.org/ns#"
   xmlns:rdf="http://www.w3.org/1999/02/22-rdf-syntax-ns#"
   xmlns:svg="http://www.w3.org/2000/svg"
   xmlns="http://www.w3.org/2000/svg"
   xmlns:sodipodi="http://sodipodi.sourceforge.net/DTD/sodipodi-0.dtd"
   xmlns:inkscape="http://www.inkscape.org/namespaces/inkscape"
   version="1.1"
   width="15.82in"
   height="7.130000000000001in"
   viewBox=" 0 0 1423.8 641.7"
   id="svg2"
   inkscape:version="0.91 r13725"
   sodipodi:docname="arduino case.svg">
  <metadata
     id="metadata32">
    <rdf:RDF>
      <cc:Work
         rdf:about="">
        <dc:format>image/svg+xml</dc:format>
        <dc:type
           rdf:resource="http://purl.org/dc/dcmitype/StillImage" />
        <dc:title></dc:title>
      </cc:Work>
    </rdf:RDF>
  </metadata>
  <defs
     id="defs30">
    <marker
       style="overflow:visible;"
       id="Arrow1Lend"
       refX="0.0"
       refY="0.0"
       orient="auto"
       inkscape:stockid="Arrow1Lend">
      <path
         transform="scale(0.8) rotate(180) translate(12.5,0)"
         style="fill-rule:evenodd;stroke:#000000;stroke-width:1.0pt;marker-start:none;"
         d="M 0.0,0.0 L 5.0,-5.0 L -12.5,0.0 L 5.0,5.0 L 0.0,0.0 z "
         id="path4521" />
    </marker>
  </defs>
  <sodipodi:namedview
     pagecolor="#ffffff"
     bordercolor="#666666"
     borderopacity="1"
     objecttolerance="10"
     gridtolerance="10"
     guidetolerance="10"
     inkscape:pageopacity="0"
     inkscape:pageshadow="2"
     inkscape:window-width="1440"
     inkscape:window-height="788"
     id="namedview28"
     showgrid="false"
     inkscape:zoom="0.6929043"
     inkscape:cx="494.69825"
     inkscape:cy="320.85002"
     inkscape:window-x="1"
     inkscape:window-y="0"
     inkscape:window-maximized="0"
     inkscape:current-layer="svg2" />
  <!-- Front-->
  <g
     transform="translate(22.5, 22.5) "
     id="g4">
    <polygon
       style="stroke:#000000; fill:none; stroke-width:0.9"
       points="0, 0 59.39999999999999, 0 59.39999999999999, 19.8 118.79999999999998, 19.8 118.79999999999998, 0 154.79999999999998, 0 154.79999999999998, 19.8 190.79999999999998, 19.8 190.79999999999998, 0 226.79999999999998, 0 226.79999999999998, 19.8 262.79999999999995, 19.8 262.79999999999995, 0 298.79999999999995, 0 298.79999999999995, 19.8 334.79999999999995, 19.8 334.79999999999995, 0 370.79999999999995, 0 370.79999999999995, 19.8 430.2, 19.8 430.2, 0 489.6, 0 489.6, 39.42 469.8, 39.42 469.8, 78.84 489.6, 78.84 489.6, 118.26 469.8, 118.26 469.8, 157.68 489.6, 157.68 489.59999999999997, 197.1 430.2, 197.1 430.2, 177.29999999999998 370.79999999999995, 177.29999999999998 370.79999999999995, 197.1 334.79999999999995, 197.1 334.79999999999995, 177.29999999999998 298.79999999999995, 177.29999999999998 298.79999999999995, 197.1 262.79999999999995, 197.1 262.79999999999995, 177.29999999999998 226.79999999999998, 177.29999999999998 226.79999999999998, 197.1 190.79999999999998, 197.1 190.79999999999998, 177.29999999999998 154.79999999999998, 177.29999999999998 154.79999999999998, 197.1 118.79999999999998, 197.1 118.79999999999998, 177.29999999999998 59.39999999999999, 177.29999999999998 59.39999999999999, 197.1 0, 197.10000000000002 0, 157.68 19.8, 157.68 19.8, 118.26 0, 118.26 0, 78.84 19.8, 78.84 19.8, 39.42 0, 39.42 "
       id="polygon6" />
  </g>
  <!-- Back-->
  <polygon
     id="polygon10"
     points="298.8,19.8 334.8,19.8 334.8,0 370.8,0 370.8,19.8 430.2,19.8 430.2,0 489.6,0 489.6,39.42 469.8,39.42 469.8,78.84 489.6,78.84 489.6,118.26 469.8,118.26 469.8,157.68 489.6,157.68 489.6,197.1 430.2,197.1 430.2,177.3 370.8,177.3 370.8,197.1 334.8,197.1 334.8,177.3 298.8,177.3 298.8,197.1 262.8,197.1 262.8,177.3 226.8,177.3 226.8,197.1 190.8,197.1 190.8,177.3 154.8,177.3 154.8,197.1 118.8,197.1 118.8,177.3 59.4,177.3 59.4,197.1 0,197.1 0,157.68 19.8,157.68 19.8,118.26 0,118.26 0,78.84 19.8,78.84 19.8,39.42 0,39.42 0,0 59.4,0 59.4,19.8 118.8,19.8 118.8,0 154.8,0 154.8,19.8 190.8,19.8 190.8,0 226.8,0 226.8,19.8 262.8,19.8 262.8,0 298.8,0 "
     style="fill:none;stroke:#000000;stroke-width:0.89999998"
     transform="translate(512.0248,22.621921)" />
  <text
     sodipodi:linespacing="125%"
     id="text3928"
     y="-86.379272"
     x="258.0914"
     style="font-style:normal;font-variant:normal;font-weight:normal;font-stretch:normal;font-size:8.90491295px;line-height:125%;font-family:Sans;-inkscape-font-specification:Sans;text-align:start;letter-spacing:0px;word-spacing:0px;writing-mode:lr-tb;text-anchor:start;fill:#ffffff;fill-opacity:1;stroke:none"
     xml:space="preserve"
     transform="matrix(0,1.0000001,-0.99999992,0,0,0)"><tspan
       style="font-style:normal;font-variant:normal;font-weight:normal;font-stretch:normal;font-size:8.90491295px;line-height:125%;font-family:Sans;-inkscape-font-specification:Sans;text-align:start;writing-mode:lr-tb;text-anchor:start;fill:#ffffff;fill-opacity:1"
       id="tspan3932"
       y="-86.379272"
       x="258.0914"
       sodipodi:role="line">Power</tspan><tspan
       style="font-style:normal;font-variant:normal;font-weight:normal;font-stretch:normal;font-size:8.90491295px;line-height:125%;font-family:Sans;-inkscape-font-specification:Sans;text-align:start;writing-mode:lr-tb;text-anchor:start;fill:#ffffff;fill-opacity:1"
       id="tspan3936"
       y="-77.716248"
       x="258.0914"
       sodipodi:role="line">jack</tspan></text>
  <g
     id="g5595">
    <ellipse
       ry="5.5570889"
       rx="5.5570898"
       transform="matrix(0,1,-1,0,0,0)"
       cy="-83.133324"
       cx="486.30807"
       style="fill:#ffffff;fill-opacity:1;stroke:#000000;stroke-width:1.00000009;stroke-linecap:round;stroke-linejoin:round;stroke-miterlimit:4;stroke-dasharray:none;stroke-dashoffset:0;stroke-opacity:1"
       id="path4253" />
    <ellipse
       ry="5.5570889"
       rx="5.5570898"
       transform="matrix(0,1,-1,0,0,0)"
       cy="-181.0874"
       cx="486.30807"
       style="fill:#ffffff;fill-opacity:1;stroke:#000000;stroke-width:1.00000009;stroke-linecap:round;stroke-linejoin:round;stroke-miterlimit:4;stroke-dasharray:none;stroke-dashoffset:0;stroke-opacity:1"
       id="path4371" />
    <ellipse
       ry="5.5570889"
       rx="5.5570898"
       transform="matrix(0,1,-1,0,0,0)"
       cy="-234.51686"
       cx="308.20981"
       id="path4355"
       style="fill:#ffffff;fill-opacity:1;stroke:#000000;stroke-width:1.00000009;stroke-linecap:round;stroke-linejoin:round;stroke-miterlimit:4;stroke-dasharray:none;stroke-dashoffset:0;stroke-opacity:1" />
    <ellipse
       ry="5.5570889"
       rx="5.5570898"
       transform="matrix(0,1,-1,0,0,0)"
       cy="-65.323547"
       cx="303.75735"
       id="path4554"
       style="fill:#ffffff;fill-opacity:1;stroke:#000000;stroke-width:1.00000009;stroke-linecap:round;stroke-linejoin:round;stroke-miterlimit:4;stroke-dasharray:none;stroke-dashoffset:0;stroke-opacity:1" />
  </g>
  <rect
     style="fill:none;fill-rule:evenodd;stroke:#000000;stroke-width:1.18601871;stroke-linecap:butt;stroke-linejoin:miter;stroke-miterlimit:4;stroke-dasharray:none;stroke-opacity:1"
     id="rect4829"
     width="143.55476"
     height="85.550591"
     x="79.707817"
     y="102.45731" />
  <!-- Left-->
  <g
     transform="translate(1001.7, 22.5) "
     id="g12">
    <polygon
       style="stroke:#000000; fill:none; stroke-width:0.9"
       points="19.8, 0 54.900000000000006, 0 54.900000000000006, 19.8 109.80000000000001, 19.8 109.80000000000001, 0 145.8, 0 145.8, 19.8 181.8, 19.8 181.8, 0 217.8, 0 217.8, 19.8 253.8, 19.8 253.8, 0 289.8, 0 289.8, 19.8 344.70000000000005, 19.8 344.70000000000005, 0 379.8, 0 379.8, 39.42 399.6, 39.42 399.6, 78.84 379.8, 78.84 379.8, 118.26 399.6, 118.26 399.6, 157.68 379.8, 157.68 379.8, 197.1 344.70000000000005, 197.1 344.70000000000005, 177.29999999999998 289.8, 177.29999999999998 289.8, 197.1 253.8, 197.1 253.8, 177.29999999999998 217.8, 177.29999999999998 217.8, 197.1 181.8, 197.1 181.8, 177.29999999999998 145.8, 177.29999999999998 145.8, 197.1 109.80000000000001, 197.1 109.80000000000001, 177.29999999999998 54.900000000000006, 177.29999999999998 54.900000000000006, 197.1 19.8, 197.10000000000002 19.8, 157.68 0, 157.68 0, 118.26 19.8, 118.26 19.8, 78.84 0, 78.84 0, 39.42 19.8, 39.42 "
       id="polygon14" />
  </g>
  <!-- Right-->
  <g
     transform="translate(1001.7, 219.6) "
     id="g16">
    <polygon
       style="stroke:#000000; fill:none; stroke-width:0.9"
       points="19.8, 0 54.900000000000006, 0 54.900000000000006, 19.8 109.80000000000001, 19.8 109.80000000000001, 0 145.8, 0 145.8, 19.8 181.8, 19.8 181.8, 0 217.8, 0 217.8, 19.8 253.8, 19.8 253.8, 0 289.8, 0 289.8, 19.8 344.70000000000005, 19.8 344.70000000000005, 0 379.8, 0 379.8, 39.42 399.6, 39.42 399.6, 78.84 379.8, 78.84 379.8, 118.26 399.6, 118.26 399.6, 157.68 379.8, 157.68 379.8, 197.1 344.70000000000005, 197.1 344.70000000000005, 177.29999999999998 289.8, 177.29999999999998 289.8, 197.1 253.8, 197.1 253.8, 177.29999999999998 217.8, 177.29999999999998 217.8, 197.1 181.8, 197.1 181.8, 177.29999999999998 145.8, 177.29999999999998 145.8, 197.1 109.80000000000001, 197.1 109.80000000000001, 177.29999999999998 54.900000000000006, 177.29999999999998 54.900000000000006, 197.1 19.8, 197.10000000000002 19.8, 157.68 0, 157.68 0, 118.26 19.8, 118.26 19.8, 78.84 0, 78.84 0, 39.42 19.8, 39.42 "
       id="polygon18" />
  </g>
  <!-- Top-->
  <g
     transform="translate(22.5, 219.6) "
     id="g20">
    <polygon
       style="stroke:#000000; fill:none; stroke-width:0.9"
       points="19.8, 19.8 59.39999999999999, 19.8 59.39999999999999, 0 118.79999999999998, 0 118.79999999999998, 19.8 154.79999999999998, 19.8 154.79999999999998, 0 190.79999999999998, 0 190.79999999999998, 19.8 226.79999999999998, 19.8 226.79999999999998, 0 262.79999999999995, 0 262.79999999999995, 19.8 298.79999999999995, 19.8 298.79999999999995, 0 334.79999999999995, 0 334.79999999999995, 19.8 370.79999999999995, 19.8 370.79999999999995, 0 430.2, 0 430.2, 19.8 469.8, 19.8 469.8, 54.900000000000006 489.6, 54.900000000000006 489.6, 109.80000000000001 469.8, 109.80000000000001 469.8, 145.8 489.6, 145.8 489.6, 181.8 469.8, 181.8 469.8, 217.8 489.6, 217.8 489.6, 253.8 469.8, 253.8 469.8, 289.8 489.6, 289.8 489.6, 344.70000000000005 469.8, 344.70000000000005 469.79999999999995, 379.8 430.2, 379.8 430.2, 399.6 370.79999999999995, 399.6 370.79999999999995, 379.8 334.79999999999995, 379.8 334.79999999999995, 399.6 298.79999999999995, 399.6 298.79999999999995, 379.8 262.79999999999995, 379.8 262.79999999999995, 399.6 226.79999999999998, 399.6 226.79999999999998, 379.8 190.79999999999998, 379.8 190.79999999999998, 399.6 154.79999999999998, 399.6 154.79999999999998, 379.8 118.79999999999998, 379.8 118.79999999999998, 399.6 59.39999999999999, 399.6 59.39999999999999, 379.8 19.8, 379.8 19.8, 344.70000000000005 0, 344.70000000000005 0, 289.8 19.8, 289.8 19.8, 253.8 0, 253.8 0, 217.8 19.8, 217.8 19.8, 181.8 0, 181.8 0, 145.8 19.8, 145.8 19.8, 109.80000000000001 0, 109.80000000000001 0, 54.900000000000006 19.8, 54.900000000000006 "
       id="polygon22" />
  </g>
  <!-- Bottom-->
  <g
     transform="translate(512.1, 219.6) "
     id="g24">
    <polygon
       style="stroke:#000000; fill:none; stroke-width:0.9"
       points="19.8, 19.8 59.39999999999999, 19.8 59.39999999999999, 0 118.79999999999998, 0 118.79999999999998, 19.8 154.79999999999998, 19.8 154.79999999999998, 0 190.79999999999998, 0 190.79999999999998, 19.8 226.79999999999998, 19.8 226.79999999999998, 0 262.79999999999995, 0 262.79999999999995, 19.8 298.79999999999995, 19.8 298.79999999999995, 0 334.79999999999995, 0 334.79999999999995, 19.8 370.79999999999995, 19.8 370.79999999999995, 0 430.2, 0 430.2, 19.8 469.8, 19.8 469.8, 54.900000000000006 489.6, 54.900000000000006 489.6, 109.80000000000001 469.8, 109.80000000000001 469.8, 145.8 489.6, 145.8 489.6, 181.8 469.8, 181.8 469.8, 217.8 489.6, 217.8 489.6, 253.8 469.8, 253.8 469.8, 289.8 489.6, 289.8 489.6, 344.70000000000005 469.8, 344.70000000000005 469.79999999999995, 379.8 430.2, 379.8 430.2, 399.6 370.79999999999995, 399.6 370.79999999999995, 379.8 334.79999999999995, 379.8 334.79999999999995, 399.6 298.79999999999995, 399.6 298.79999999999995, 379.8 262.79999999999995, 379.8 262.79999999999995, 399.6 226.79999999999998, 399.6 226.79999999999998, 379.8 190.79999999999998, 379.8 190.79999999999998, 399.6 154.79999999999998, 399.6 154.79999999999998, 379.8 118.79999999999998, 379.8 118.79999999999998, 399.6 59.39999999999999, 399.6 59.39999999999999, 379.8 19.8, 379.8 19.8, 344.70000000000005 0, 344.70000000000005 0, 289.8 19.8, 289.8 19.8, 253.8 0, 253.8 0, 217.8 19.8, 217.8 19.8, 181.8 0, 181.8 0, 145.8 19.8, 145.8 19.8, 109.80000000000001 0, 109.80000000000001 0, 54.900000000000006 19.8, 54.900000000000006 "
       id="polygon26" />
  </g>
  <rect
     style="fill:none;fill-rule:evenodd;stroke:#000000;stroke-width:1px;stroke-linecap:butt;stroke-linejoin:miter;stroke-opacity:1"
     id="rect3624"
     width="136.11844"
     height="26.656527"
     x="284.14725"
     y="115.94251" />
  <circle
     style="fill:none;stroke:#000000;stroke-width:1.00000009;stroke-miterlimit:4;stroke-dasharray:none;stroke-opacity:1"
     id="path4440"
     cx="914.03186"
     cy="123.3156"
     r="21.287792" />
  <circle
     style="fill:none;stroke:#000000;stroke-width:0.90993398;stroke-miterlimit:4;stroke-dasharray:none;stroke-opacity:1"
     id="path4462"
     cx="819.07343"
     cy="123.3156"
     r="21.159208" />
  <rect
     style="fill:none;stroke:#000000;stroke-width:1;stroke-miterlimit:4;stroke-dasharray:none;stroke-opacity:1"
     id="rect4466"
     width="154.83472"
     height="43.104172"
     x="566.59302"
     y="100.62919" />
</svg>
