<?xml version="1.0" encoding="UTF-8" standalone="no"?>
<svg
   xmlns:dc="http://purl.org/dc/elements/1.1/"
   xmlns:cc="http://creativecommons.org/ns#"
   xmlns:rdf="http://www.w3.org/1999/02/22-rdf-syntax-ns#"
   xmlns:svg="http://www.w3.org/2000/svg"
   xmlns="http://www.w3.org/2000/svg"
   xmlns:sodipodi="http://sodipodi.sourceforge.net/DTD/sodipodi-0.dtd"
   xmlns:inkscape="http://www.inkscape.org/namespaces/inkscape"
   version="1.1"
   width="16.5in"
   height="8.5in"
   viewBox=" 0 0 1485 765"
   id="svg2"
   inkscape:version="0.91 r13725"
   sodipodi:docname="caseplans.svg">
  <metadata
     id="metadata32">
    <rdf:RDF>
      <cc:Work
         rdf:about="">
        <dc:format>image/svg+xml</dc:format>
        <dc:type
           rdf:resource="http://purl.org/dc/dcmitype/StillImage" />
        <dc:title />
      </cc:Work>
    </rdf:RDF>
  </metadata>
  <defs
     id="defs30" />
  <sodipodi:namedview
     pagecolor="#ffffff"
     bordercolor="#666666"
     borderopacity="1"
     objecttolerance="10"
     gridtolerance="10"
     guidetolerance="10"
     inkscape:pageopacity="0"
     inkscape:pageshadow="2"
     inkscape:window-width="1319"
     inkscape:window-height="710"
     id="namedview28"
     showgrid="false"
     inkscape:zoom="0.95897951"
     inkscape:cx="242.04072"
     inkscape:cy="422.0608"
     inkscape:window-x="0"
     inkscape:window-y="0"
     inkscape:window-maximized="0"
     inkscape:current-layer="svg2" />
  <!-- Front-->
  <g
     transform="translate(22.5, 22.5) "
     id="g4"
     style="fill:none;stroke:#000000;stroke-opacity:1">
    <polygon
       style="stroke:#000000;fill:none;stroke-width:0.9;stroke-opacity:1"
       points="0, 0 49.499999999999986, 0 49.499999999999986, 21.24 98.99999999999997, 21.24 98.99999999999997, 0 134.99999999999997, 0 134.99999999999997, 21.24 170.99999999999997, 21.24 170.99999999999997, 0 206.99999999999997, 0 206.99999999999997, 21.24 242.99999999999997, 21.24 242.99999999999997, 0 279, 0 279, 21.24 315, 21.24 315, 0 351, 0 351, 21.24 400.49999999999994, 21.24 400.49999999999994, 0 450, 0 450, 36 428.76, 36 428.76, 72 450, 72 450, 108 428.76, 108 428.76, 144 450, 144 449.99999999999994, 180 400.49999999999994, 180 400.49999999999994, 158.76 351, 158.76 351, 180 315, 180 315, 158.76 279, 158.76 279, 180 242.99999999999997, 180 242.99999999999997, 158.76 206.99999999999997, 158.76 206.99999999999997, 180 170.99999999999997, 180 170.99999999999997, 158.76 134.99999999999997, 158.76 134.99999999999997, 180 98.99999999999997, 180 98.99999999999997, 158.76 49.499999999999986, 158.76 49.499999999999986, 180 0, 180 0, 144 21.24, 144 21.24, 108 0, 108 0, 72 21.24, 72 21.24, 36 0, 36 "
       id="polygon6" />
  </g>
  <!-- Back-->
  <g
     transform="translate(472.5, 22.5) "
     id="g8"
     style="fill:none;stroke:#000000;stroke-opacity:1">
    <polygon
       style="stroke:#000000;fill:none;stroke-width:0.9;stroke-opacity:1"
       points="0, 0 49.499999999999986, 0 49.499999999999986, 21.24 98.99999999999997, 21.24 98.99999999999997, 0 134.99999999999997, 0 134.99999999999997, 21.24 170.99999999999997, 21.24 170.99999999999997, 0 206.99999999999997, 0 206.99999999999997, 21.24 242.99999999999997, 21.24 242.99999999999997, 0 279, 0 279, 21.24 315, 21.24 315, 0 351, 0 351, 21.24 400.49999999999994, 21.24 400.49999999999994, 0 450, 0 450, 36 428.76, 36 428.76, 72 450, 72 450, 108 428.76, 108 428.76, 144 450, 144 449.99999999999994, 180 400.49999999999994, 180 400.49999999999994, 158.76 351, 158.76 351, 180 315, 180 315, 158.76 279, 158.76 279, 180 242.99999999999997, 180 242.99999999999997, 158.76 206.99999999999997, 158.76 206.99999999999997, 180 170.99999999999997, 180 170.99999999999997, 158.76 134.99999999999997, 158.76 134.99999999999997, 180 98.99999999999997, 180 98.99999999999997, 158.76 49.499999999999986, 158.76 49.499999999999986, 180 0, 180 0, 144 21.24, 144 21.24, 108 0, 108 0, 72 21.24, 72 21.24, 36 0, 36 "
       id="polygon10" />
  </g>
  <!-- Left-->
  <g
     transform="translate(922.5, 22.5) "
     id="g12"
     style="fill:none;stroke:#000000;stroke-opacity:1">
    <polygon
       style="stroke:#000000;fill:none;stroke-width:0.9;stroke-opacity:1"
       points="21.24, 0 53.999999999999986, 0 53.999999999999986, 21.24 107.99999999999997, 21.24 107.99999999999997, 0 143.99999999999997, 0 143.99999999999997, 21.24 179.99999999999997, 21.24 179.99999999999997, 0 215.99999999999997, 0 215.99999999999997, 21.24 251.99999999999997, 21.24 251.99999999999997, 0 288, 0 288, 21.24 324, 21.24 324, 0 360, 0 360, 21.24 396, 21.24 396, 0 432, 0 432, 21.24 485.99999999999994, 21.24 485.99999999999994, 0 518.76, 0 518.76, 36 540, 36 540, 72 518.76, 72 518.76, 108 540, 108 540, 144 518.76, 144 518.76, 180 485.99999999999994, 180 485.99999999999994, 158.76 432, 158.76 432, 180 396, 180 396, 158.76 360, 158.76 360, 180 324, 180 324, 158.76 288, 158.76 288, 180 251.99999999999997, 180 251.99999999999997, 158.76 215.99999999999997, 158.76 215.99999999999997, 180 179.99999999999997, 180 179.99999999999997, 158.76 143.99999999999997, 158.76 143.99999999999997, 180 107.99999999999997, 180 107.99999999999997, 158.76 53.999999999999986, 158.76 53.999999999999986, 180 21.24, 180 21.24, 144 0, 144 0, 108 21.24, 108 21.24, 72 0, 72 0, 36 21.24, 36 "
       id="polygon14" />
  </g>
  <!-- Right-->
  <g
     transform="translate(922.5, 202.5) "
     id="g16"
     style="fill:none;stroke:#000000;stroke-opacity:1">
    <polygon
       style="stroke:#000000;fill:none;stroke-width:0.9;stroke-opacity:1"
       points="21.24, 0 53.999999999999986, 0 53.999999999999986, 21.24 107.99999999999997, 21.24 107.99999999999997, 0 143.99999999999997, 0 143.99999999999997, 21.24 179.99999999999997, 21.24 179.99999999999997, 0 215.99999999999997, 0 215.99999999999997, 21.24 251.99999999999997, 21.24 251.99999999999997, 0 288, 0 288, 21.24 324, 21.24 324, 0 360, 0 360, 21.24 396, 21.24 396, 0 432, 0 432, 21.24 485.99999999999994, 21.24 485.99999999999994, 0 518.76, 0 518.76, 36 540, 36 540, 72 518.76, 72 518.76, 108 540, 108 540, 144 518.76, 144 518.76, 180 485.99999999999994, 180 485.99999999999994, 158.76 432, 158.76 432, 180 396, 180 396, 158.76 360, 158.76 360, 180 324, 180 324, 158.76 288, 158.76 288, 180 251.99999999999997, 180 251.99999999999997, 158.76 215.99999999999997, 158.76 215.99999999999997, 180 179.99999999999997, 180 179.99999999999997, 158.76 143.99999999999997, 158.76 143.99999999999997, 180 107.99999999999997, 180 107.99999999999997, 158.76 53.999999999999986, 158.76 53.999999999999986, 180 21.24, 180 21.24, 144 0, 144 0, 108 21.24, 108 21.24, 72 0, 72 0, 36 21.24, 36 "
       id="polygon18" />
  </g>
  <!-- Top-->
  <g
     transform="translate(22.5, 202.5) "
     id="g20"
     style="fill:none;stroke:#000000;stroke-opacity:1">
    <polygon
       style="stroke:#000000;fill:none;stroke-width:0.9;stroke-opacity:1"
       points="21.24, 21.24 49.499999999999986, 21.24 49.499999999999986, 0 98.99999999999997, 0 98.99999999999997, 21.24 134.99999999999997, 21.24 134.99999999999997, 0 170.99999999999997, 0 170.99999999999997, 21.24 206.99999999999997, 21.24 206.99999999999997, 0 242.99999999999997, 0 242.99999999999997, 21.24 279, 21.24 279, 0 315, 0 315, 21.24 351, 21.24 351, 0 400.49999999999994, 0 400.49999999999994, 21.24 428.76, 21.24 428.76, 53.999999999999986 450, 53.999999999999986 450, 107.99999999999997 428.76, 107.99999999999997 428.76, 143.99999999999997 450, 143.99999999999997 450, 179.99999999999997 428.76, 179.99999999999997 428.76, 215.99999999999997 450, 215.99999999999997 450, 251.99999999999997 428.76, 251.99999999999997 428.76, 288 450, 288 450, 324 428.76, 324 428.76, 360 450, 360 450, 396 428.76, 396 428.76, 432 450, 432 450, 485.99999999999994 428.76, 485.99999999999994 428.75999999999993, 518.76 400.49999999999994, 518.76 400.49999999999994, 540 351, 540 351, 518.76 315, 518.76 315, 540 279, 540 279, 518.76 242.99999999999997, 518.76 242.99999999999997, 540 206.99999999999997, 540 206.99999999999997, 518.76 170.99999999999997, 518.76 170.99999999999997, 540 134.99999999999997, 540 134.99999999999997, 518.76 98.99999999999997, 518.76 98.99999999999997, 540 49.499999999999986, 540 49.499999999999986, 518.76 21.24, 518.76 21.24, 485.99999999999994 0, 485.99999999999994 0, 432 21.24, 432 21.24, 396 0, 396 0, 360 21.24, 360 21.24, 324 0, 324 0, 288 21.24, 288 21.24, 251.99999999999997 0, 251.99999999999997 0, 215.99999999999997 21.24, 215.99999999999997 21.24, 179.99999999999997 0, 179.99999999999997 0, 143.99999999999997 21.24, 143.99999999999997 21.24, 107.99999999999997 0, 107.99999999999997 0, 53.999999999999986 21.24, 53.999999999999986 "
       id="polygon22" />
  </g>
  <!-- Bottom-->
  <g
     transform="translate(472.5, 202.5) "
     id="g24"
     style="fill:none;stroke:#000000;stroke-opacity:1">
    <polygon
       style="stroke:#000000;fill:none;stroke-width:0.9;stroke-opacity:1"
       points="21.24, 21.24 49.499999999999986, 21.24 49.499999999999986, 0 98.99999999999997, 0 98.99999999999997, 21.24 134.99999999999997, 21.24 134.99999999999997, 0 170.99999999999997, 0 170.99999999999997, 21.24 206.99999999999997, 21.24 206.99999999999997, 0 242.99999999999997, 0 242.99999999999997, 21.24 279, 21.24 279, 0 315, 0 315, 21.24 351, 21.24 351, 0 400.49999999999994, 0 400.49999999999994, 21.24 428.76, 21.24 428.76, 53.999999999999986 450, 53.999999999999986 450, 107.99999999999997 428.76, 107.99999999999997 428.76, 143.99999999999997 450, 143.99999999999997 450, 179.99999999999997 428.76, 179.99999999999997 428.76, 215.99999999999997 450, 215.99999999999997 450, 251.99999999999997 428.76, 251.99999999999997 428.76, 288 450, 288 450, 324 428.76, 324 428.76, 360 450, 360 450, 396 428.76, 396 428.76, 432 450, 432 450, 485.99999999999994 428.76, 485.99999999999994 428.75999999999993, 518.76 400.49999999999994, 518.76 400.49999999999994, 540 351, 540 351, 518.76 315, 518.76 315, 540 279, 540 279, 518.76 242.99999999999997, 518.76 242.99999999999997, 540 206.99999999999997, 540 206.99999999999997, 518.76 170.99999999999997, 518.76 170.99999999999997, 540 134.99999999999997, 540 134.99999999999997, 518.76 98.99999999999997, 518.76 98.99999999999997, 540 49.499999999999986, 540 49.499999999999986, 518.76 21.24, 518.76 21.24, 485.99999999999994 0, 485.99999999999994 0, 432 21.24, 432 21.24, 396 0, 396 0, 360 21.24, 360 21.24, 324 0, 324 0, 288 21.24, 288 21.24, 251.99999999999997 0, 251.99999999999997 0, 215.99999999999997 21.24, 215.99999999999997 21.24, 179.99999999999997 0, 179.99999999999997 0, 143.99999999999997 21.24, 143.99999999999997 21.24, 107.99999999999997 0, 107.99999999999997 0, 53.999999999999986 21.24, 53.999999999999986 "
       id="polygon26" />
  </g>
  <rect
     style="opacity:1;fill:none;fill-opacity:1;stroke:#000000;stroke-width:1;stroke-miterlimit:4;stroke-dasharray:none;stroke-opacity:1"
     id="rect4162"
     width="200.77325"
     height="68.163757"
     x="60.892277"
     y="107.29421" />
  <circle
     style="opacity:1;fill:none;fill-opacity:1;stroke:#000000;stroke-width:0.62530482;stroke-miterlimit:4;stroke-dasharray:none;stroke-opacity:1"
     id="path4164"
     cx="546.19324"
     cy="154.36096"
     r="16.562347" />
</svg>
