<?xml version="1.0" encoding="UTF-8" standalone="no"?>
<svg
   xmlns:dc="http://purl.org/dc/elements/1.1/"
   xmlns:cc="http://creativecommons.org/ns#"
   xmlns:rdf="http://www.w3.org/1999/02/22-rdf-syntax-ns#"
   xmlns:svg="http://www.w3.org/2000/svg"
   xmlns="http://www.w3.org/2000/svg"
   xmlns:sodipodi="http://sodipodi.sourceforge.net/DTD/sodipodi-0.dtd"
   xmlns:inkscape="http://www.inkscape.org/namespaces/inkscape"
   version="1.1"
   width="14.5in"
   height="10.5in"
   viewBox=" 0 0 1305 945"
   id="svg2"
   inkscape:version="0.91 r13725"
   sodipodi:docname="newcaseplans.svg">
  <metadata
     id="metadata32">
    <rdf:RDF>
      <cc:Work
         rdf:about="">
        <dc:format>image/svg+xml</dc:format>
        <dc:type
           rdf:resource="http://purl.org/dc/dcmitype/StillImage" />
      </cc:Work>
    </rdf:RDF>
  </metadata>
  <defs
     id="defs30" />
  <sodipodi:namedview
     pagecolor="#ffffff"
     bordercolor="#666666"
     borderopacity="1"
     objecttolerance="10"
     gridtolerance="10"
     guidetolerance="10"
     inkscape:pageopacity="0"
     inkscape:pageshadow="2"
     inkscape:window-width="2160"
     inkscape:window-height="1070"
     id="namedview28"
     showgrid="false"
     inkscape:zoom="0.91851852"
     inkscape:cx="652.5"
     inkscape:cy="472.5"
     inkscape:window-x="1058"
     inkscape:window-y="136"
     inkscape:window-maximized="0"
     inkscape:current-layer="svg2" />
  <!-- Front-->
  <g
     transform="translate(22.5, 22.5) "
     id="g4"
     style="fill:none;stroke:#000000;stroke-opacity:1">
    <polygon
       style="stroke:#000000;fill:none;stroke-width:0.9;stroke-opacity:1"
       points="0, 0 58.49999999999999, 0 58.49999999999999, 21.24 116.99999999999999, 21.24 116.99999999999999, 0 153, 0 153, 21.24 211.49999999999997, 21.24 211.49999999999997, 0 270, 0 270, 36 248.76, 36 248.76, 72 270, 72 270, 108 248.76, 108 248.76, 144 270, 144 270, 180 211.49999999999997, 180 211.49999999999997, 158.76 153, 158.76 153, 180 116.99999999999999, 180 116.99999999999999, 158.76 58.49999999999999, 158.76 58.49999999999999, 180 0, 180 0, 144 21.24, 144 21.24, 108 0, 108 0, 72 21.24, 72 21.24, 36 0, 36 "
       id="polygon6" />
  </g>
  <!-- Back-->
  <g
     transform="translate(292.5, 22.5) "
     id="g8"
     style="fill:none;stroke:#000000;stroke-opacity:1">
    <polygon
       style="stroke:#000000;fill:none;stroke-width:0.9;stroke-opacity:1"
       points="0, 0 58.49999999999999, 0 58.49999999999999, 21.24 116.99999999999999, 21.24 116.99999999999999, 0 153, 0 153, 21.24 211.49999999999997, 21.24 211.49999999999997, 0 270, 0 270, 36 248.76, 36 248.76, 72 270, 72 270, 108 248.76, 108 248.76, 144 270, 144 270, 180 211.49999999999997, 180 211.49999999999997, 158.76 153, 158.76 153, 180 116.99999999999999, 180 116.99999999999999, 158.76 58.49999999999999, 158.76 58.49999999999999, 180 0, 180 0, 144 21.24, 144 21.24, 108 0, 108 0, 72 21.24, 72 21.24, 36 0, 36 "
       id="polygon10" />
  </g>
  <!-- Left-->
  <g
     transform="translate(562.5, 22.5) "
     id="g12"
     style="fill:none;stroke:#000000;stroke-opacity:1">
    <polygon
       style="stroke:#000000;fill:none;stroke-width:0.9;stroke-opacity:1"
       points="21.24, 0 45, 0 45, 21.24 90, 21.24 90, 0 126, 0 126, 21.24 162, 21.24 162, 0 198, 0 198, 21.24 234, 21.24 234, 0 270, 0 270, 21.24 306, 21.24 306, 0 342, 0 342, 21.24 378, 21.24 378, 0 414, 0 414, 21.24 450, 21.24 450, 0 486, 0 486, 21.24 522, 21.24 522, 0 558, 0 558, 21.24 594, 21.24 594, 0 630, 0 630, 21.24 675, 21.24 675, 0 698.76, 0 698.76, 36 720, 36 720, 72 698.76, 72 698.76, 108 720, 108 720, 144 698.76, 144 698.76, 180 675, 180 675, 158.76 630, 158.76 630, 180 594, 180 594, 158.76 558, 158.76 558, 180 522, 180 522, 158.76 486, 158.76 486, 180 450, 180 450, 158.76 414, 158.76 414, 180 378, 180 378, 158.76 342, 158.76 342, 180 306, 180 306, 158.76 270, 158.76 270, 180 234, 180 234, 158.76 198, 158.76 198, 180 162, 180 162, 158.76 126, 158.76 126, 180 90, 180 90, 158.76 45, 158.76 45, 180 21.24, 180 21.24, 144 0, 144 0, 108 21.24, 108 21.24, 72 0, 72 0, 36 21.24, 36 "
       id="polygon14" />
  </g>
  <!-- Right-->
  <g
     transform="translate(562.5, 202.5) "
     id="g16"
     style="fill:none;stroke:#000000;stroke-opacity:1">
    <polygon
       style="stroke:#000000;fill:none;stroke-width:0.9;stroke-opacity:1"
       points="21.24, 0 45, 0 45, 21.24 90, 21.24 90, 0 126, 0 126, 21.24 162, 21.24 162, 0 198, 0 198, 21.24 234, 21.24 234, 0 270, 0 270, 21.24 306, 21.24 306, 0 342, 0 342, 21.24 378, 21.24 378, 0 414, 0 414, 21.24 450, 21.24 450, 0 486, 0 486, 21.24 522, 21.24 522, 0 558, 0 558, 21.24 594, 21.24 594, 0 630, 0 630, 21.24 675, 21.24 675, 0 698.76, 0 698.76, 36 720, 36 720, 72 698.76, 72 698.76, 108 720, 108 720, 144 698.76, 144 698.76, 180 675, 180 675, 158.76 630, 158.76 630, 180 594, 180 594, 158.76 558, 158.76 558, 180 522, 180 522, 158.76 486, 158.76 486, 180 450, 180 450, 158.76 414, 158.76 414, 180 378, 180 378, 158.76 342, 158.76 342, 180 306, 180 306, 158.76 270, 158.76 270, 180 234, 180 234, 158.76 198, 158.76 198, 180 162, 180 162, 158.76 126, 158.76 126, 180 90, 180 90, 158.76 45, 158.76 45, 180 21.24, 180 21.24, 144 0, 144 0, 108 21.24, 108 21.24, 72 0, 72 0, 36 21.24, 36 "
       id="polygon18" />
  </g>
  <!-- Top-->
  <g
     transform="translate(22.5, 202.5) "
     id="g20"
     style="fill:none;stroke:#000000;stroke-opacity:1">
    <polygon
       style="stroke:#000000;fill:none;stroke-width:0.9;stroke-opacity:1"
       points="21.24, 21.24 58.49999999999999, 21.24 58.49999999999999, 0 116.99999999999999, 0 116.99999999999999, 21.24 153, 21.24 153, 0 211.49999999999997, 0 211.49999999999997, 21.24 248.76, 21.24 248.76, 45 270, 45 270, 90 248.76, 90 248.76, 126 270, 126 270, 162 248.76, 162 248.76, 198 270, 198 270, 234 248.76, 234 248.76, 270 270, 270 270, 306 248.76, 306 248.76, 342 270, 342 270, 378 248.76, 378 248.76, 414 270, 414 270, 450 248.76, 450 248.76, 486 270, 486 270, 522 248.76, 522 248.76, 558 270, 558 270, 594 248.76, 594 248.76, 630 270, 630 270, 675 248.76, 675 248.76, 698.76 211.49999999999997, 698.76 211.49999999999997, 720 153, 720 153, 698.76 116.99999999999999, 698.76 116.99999999999999, 720 58.49999999999999, 720 58.49999999999999, 698.76 21.24, 698.76 21.24, 675 0, 675 0, 630 21.24, 630 21.24, 594 0, 594 0, 558 21.24, 558 21.24, 522 0, 522 0, 486 21.24, 486 21.24, 450 0, 450 0, 414 21.24, 414 21.24, 378 0, 378 0, 342 21.24, 342 21.24, 306 0, 306 0, 270 21.24, 270 21.24, 234 0, 234 0, 198 21.24, 198 21.24, 162 0, 162 0, 126 21.24, 126 21.24, 90 0, 90 0, 45 21.24, 45 "
       id="polygon22" />
  </g>
  <!-- Bottom-->
  <g
     transform="translate(292.5, 202.5) "
     id="g24"
     style="fill:none;stroke:#000000;stroke-opacity:1">
    <polygon
       style="stroke:#000000;fill:none;stroke-width:0.9;stroke-opacity:1"
       points="21.24, 21.24 58.49999999999999, 21.24 58.49999999999999, 0 116.99999999999999, 0 116.99999999999999, 21.24 153, 21.24 153, 0 211.49999999999997, 0 211.49999999999997, 21.24 248.76, 21.24 248.76, 45 270, 45 270, 90 248.76, 90 248.76, 126 270, 126 270, 162 248.76, 162 248.76, 198 270, 198 270, 234 248.76, 234 248.76, 270 270, 270 270, 306 248.76, 306 248.76, 342 270, 342 270, 378 248.76, 378 248.76, 414 270, 414 270, 450 248.76, 450 248.76, 486 270, 486 270, 522 248.76, 522 248.76, 558 270, 558 270, 594 248.76, 594 248.76, 630 270, 630 270, 675 248.76, 675 248.76, 698.76 211.49999999999997, 698.76 211.49999999999997, 720 153, 720 153, 698.76 116.99999999999999, 698.76 116.99999999999999, 720 58.49999999999999, 720 58.49999999999999, 698.76 21.24, 698.76 21.24, 675 0, 675 0, 630 21.24, 630 21.24, 594 0, 594 0, 558 21.24, 558 21.24, 522 0, 522 0, 486 21.24, 486 21.24, 450 0, 450 0, 414 21.24, 414 21.24, 378 0, 378 0, 342 21.24, 342 21.24, 306 0, 306 0, 270 21.24, 270 21.24, 234 0, 234 0, 198 21.24, 198 21.24, 162 0, 162 0, 126 21.24, 126 21.24, 90 0, 90 0, 45 21.24, 45 "
       id="polygon26" />
  </g>
  <ellipse
     style="opacity:1;fill:none;fill-opacity:1;stroke:#000000;stroke-width:1;stroke-linejoin:round;stroke-miterlimit:4;stroke-dasharray:none;stroke-opacity:1"
     id="path4258"
     cx="-106.81695"
     cy="112.30697"
     transform="scale(-1,1)"
     rx="21.399229"
     ry="21.399227" />
  <ellipse
     ry="21.399227"
     rx="21.399229"
     transform="scale(-1,1)"
     cy="112.35178"
     cx="-202.66129"
     id="ellipse4260"
     style="opacity:1;fill:none;fill-opacity:1;stroke:#000000;stroke-width:1;stroke-linejoin:round;stroke-miterlimit:4;stroke-dasharray:none;stroke-opacity:1" />
  <rect
     style="opacity:1;fill:none;fill-opacity:1;stroke:#000000;stroke-width:1.22933698;stroke-linejoin:round;stroke-miterlimit:4;stroke-dasharray:none;stroke-opacity:1"
     id="rect4262"
     width="191.40268"
     height="84.550491"
     x="330.80368"
     y="79.370308" />
</svg>
