<?xml version="1.0" encoding="UTF-8" standalone="no"?>
<svg
   xmlns:dc="http://purl.org/dc/elements/1.1/"
   xmlns:cc="http://creativecommons.org/ns#"
   xmlns:rdf="http://www.w3.org/1999/02/22-rdf-syntax-ns#"
   xmlns:svg="http://www.w3.org/2000/svg"
   xmlns="http://www.w3.org/2000/svg"
   xmlns:sodipodi="http://sodipodi.sourceforge.net/DTD/sodipodi-0.dtd"
   xmlns:inkscape="http://www.inkscape.org/namespaces/inkscape"
   version="1.0"
   width="12in"
   height="12in"
   viewBox="0 0 864 864"
   preserveAspectRatio="xMidYMid meet"
   id="svg2"
   inkscape:version="0.91 r13725"
   sodipodi:docname="scu_engineering-2.svg">
  <defs
     id="defs132" />
  <sodipodi:namedview
     pagecolor="#ffffff"
     bordercolor="#666666"
     borderopacity="1"
     objecttolerance="10"
     gridtolerance="10"
     guidetolerance="10"
     inkscape:pageopacity="0"
     inkscape:pageshadow="2"
     inkscape:window-width="1959"
     inkscape:window-height="1255"
     id="namedview130"
     showgrid="false"
     showguides="true"
     units="in"
     inkscape:zoom="0.975"
     inkscape:cx="540"
     inkscape:cy="540"
     inkscape:window-x="36"
     inkscape:window-y="0"
     inkscape:window-maximized="0"
     inkscape:current-layer="svg2">
    <inkscape:grid
       type="xygrid"
       id="grid4383" />
  </sodipodi:namedview>
  <metadata
     id="metadata4">
Created by potrace 1.13, written by Peter Selinger 2001-2015
<rdf:RDF>
  <cc:Work
     rdf:about="">
    <dc:format>image/svg+xml</dc:format>
    <dc:type
       rdf:resource="http://purl.org/dc/dcmitype/StillImage" />
    <dc:title></dc:title>
  </cc:Work>
</rdf:RDF>
</metadata>
  <g
     id="g4321"
     transform="matrix(0.54919968,0,0,0.54919968,207.10273,158.63586)">
    <path
       d="m 281,14.9 c 0,7.2 -0.6,8.1 -5.1,8.1 -1.6,0 -1.9,0.7 -1.9,5.5 l 0,5.5 4,0 4,0 0,11.9 0,11.8 -4,0.6 c -5.2,0.7 -12.2,4.8 -15.6,9.2 -4.4,5.9 -5.3,9.9 -5.4,24.8 l 0,13.7 -25.1,40.8 c -13.8,22.4 -25.7,41.3 -26.4,42 -0.7,0.7 -7.9,2.8 -16.1,4.5 l -14.9,3.2 -0.3,7.6 -0.3,7.6 3.1,1.3 3,1.2 0,129.9 0,129.8 47.6,28.5 c 26.1,15.8 48,28.6 48.5,28.6 0.5,0 0.9,-53 0.9,-135 0,-74.3 0.3,-135 0.8,-135 0.4,0 25.2,-3.8 55.2,-8.5 30,-4.7 55.5,-8.5 56.7,-8.5 l 2.3,0 0.2,72.5 0.3,72.5 53.5,-42 c 29.4,-23.1 53.7,-42 54,-42 0.3,0.1 19.6,11.4 43,25.3 l 42.5,25.3 0.5,18.9 0.5,18.9 18.3,8.5 18.2,8.5 0,14.6 c 0,8.1 0.3,24.9 0.7,37.4 l 0.6,22.7 5.1,-0.6 c 9.5,-1.2 8.6,2.5 8.6,-34.2 0,-28.5 0.2,-32.4 1.5,-31.9 0.8,0.3 2.2,0.9 3,1.2 1.3,0.5 1.5,-0.7 1.5,-7.3 l 0,-8 -22.2,-11.9 -22.3,-11.9 -0.3,-8.8 c -0.1,-4.8 0.1,-8.7 0.5,-8.7 0.4,0.1 1.9,0.7 3.3,1.5 1.4,0.8 2.9,1.4 3.3,1.5 0.4,0 0.6,-3.8 0.5,-8.5 l -0.3,-8.6 -51.5,-30.2 -51.5,-30.2 -0.3,-12.3 -0.3,-12.2 3.1,0 c 2.9,0 3,-0.1 3,-5 l 0,-5 -3.5,0 -3.5,0 0,-6 0,-6 -4,0 -4,0 0,6.5 0,6.5 -3,0 c -2.9,0 -3,0.1 -3,5 0,4.9 0.1,5 3,5 l 3,0 0,9 c 0,4.9 -0.3,9 -0.7,9 -0.5,0 -20.4,-8.3 -44.3,-18.4 -40.5,-17.1 -43.5,-18.6 -43.8,-21 -0.3,-2.7 0,-2.9 5.1,-4 2.8,-0.7 2.8,-0.7 2.5,-7.7 l -0.3,-7.1 -14.2,-6.1 L 384,212.5 350,162 316,111.6 316,97.8 C 316,86.3 315.7,83.1 313.9,78.3 311.2,71 302.3,61.8 296.1,59.9 l -4.1,-1.2 0,-12.9 c 0,-12 0.1,-12.8 1.9,-12.8 4.3,0 5.1,-1 5.1,-6.6 l 0,-5.4 -4,0 -4,0 0,-6.5 0,-6.5 -5,0 -5,0 0,6.9 z m -1.3,94.8 c -0.2,0.2 -1.8,0 -3.5,-0.3 l -3.2,-0.7 0,-15.4 0,-15.5 3.3,-3.1 3.2,-3.2 0.3,18.9 c 0.1,10.4 0.1,19.1 -0.1,19.3 z M 297,78.2 c 3,4.1 3,4.1 3,18 l 0,13.8 -3.5,0 -3.5,0 0,-18 c 0,-9.9 0.2,-18 0.5,-18 0.3,0 1.8,1.9 3.5,4.2 z m -89.2,179.2 3.2,4.4 0,20.6 c 0,11.3 -0.2,20.6 -0.4,20.6 -0.3,0 -2.1,-0.9 -4,-2.1 l -3.6,-2.1 0,-22.9 c 0,-12.6 0.4,-22.9 0.8,-22.9 0.5,0 2.3,2 4,4.4 z m 38.1,17.3 3.1,4.6 0,20.9 0,20.8 -4,-2.6 -4,-2.7 0,-22.8 c 0,-13 0.4,-22.9 0.9,-22.9 0.5,0 2.3,2.1 4,4.7 z"
       id="path8"
       style="fill:none;stroke:#000000;stroke-width:0.80000001;stroke-miterlimit:4;stroke-dasharray:none;stroke-opacity:1"
       inkscape:connector-curvature="0" />
    <path
       d="m 352.1,274.6 c -3.8,3.1 -3.9,4.6 -0.6,7.8 l 2.5,2.5 0,20.2 0,20.1 3.1,-0.6 c 1.7,-0.3 4.4,-0.6 6,-0.6 l 2.9,0 0,-24 c 0,-22.7 -0.1,-24.1 -2,-26 -2.9,-2.9 -8.1,-2.6 -11.9,0.6 z"
       id="path10"
       style="fill:none;stroke:#000000;stroke-width:0.80000001;stroke-miterlimit:4;stroke-dasharray:none;stroke-opacity:1"
       inkscape:connector-curvature="0" />
    <path
       d="m 309.7,280 c -3.9,3.1 -4.2,5.4 -1.2,8.4 l 2.5,2.5 0,20.2 0,20.1 3.1,-0.6 c 1.7,-0.3 4.4,-0.6 6,-0.6 l 2.9,0 0,-24 c 0,-22.7 -0.1,-24.1 -2,-26 -2.6,-2.6 -8,-2.6 -11.3,0 z"
       id="path12"
       style="fill:none;stroke:#000000;stroke-width:0.80000001;stroke-miterlimit:4;stroke-dasharray:none;stroke-opacity:1"
       inkscape:connector-curvature="0" />
    <path
       d="m 494.2,332.6 c -3.6,3.6 -3.6,3.6 -1.6,5.3 3.7,2.9 4.4,5.7 4.4,16 0,11.1 -0.5,10.5 7.4,9.5 l 4.6,-0.7 0,-14.8 c 0,-13.6 -0.2,-15.1 -2,-16.9 -3.3,-3.3 -8.5,-2.7 -12.8,1.6 z"
       id="path14"
       style="fill:none;stroke:#000000;stroke-width:0.80000001;stroke-miterlimit:4;stroke-dasharray:none;stroke-opacity:1"
       inkscape:connector-curvature="0" />
    <path
       d="m 494,419.7 c -6.6,2.4 -16,12.1 -19.1,19.8 -2.3,5.8 -2.4,7.2 -2.7,34.8 -0.2,15.9 -0.1,29.4 0.1,30.1 0.4,0.9 7.3,0.3 27.8,-2.4 l 27.4,-3.6 0,-30.9 c 0,-34.3 -0.1,-34.5 -6.7,-42.1 -6.2,-7.1 -16.6,-9.2 -26.8,-5.7 z"
       id="path16"
       style="fill:none;stroke:#000000;stroke-width:0.80000001;stroke-miterlimit:4;stroke-dasharray:none;stroke-opacity:1"
       inkscape:connector-curvature="0" />
    <path
       d="m 588.9,439.9 c -3.5,3.6 -3.6,4.1 -0.4,7.1 l 2.5,2.3 0,20.3 0,20.3 2.8,-0.4 c 1.5,-0.2 4.4,-0.7 6.5,-1 l 3.7,-0.6 0,-22.8 c 0,-21.6 -0.1,-23 -2.1,-25.5 -3,-3.8 -9,-3.7 -13,0.3 z"
       id="path18"
       style="fill:none;stroke:#000000;stroke-width:0.80000001;stroke-miterlimit:4;stroke-dasharray:none;stroke-opacity:1"
       inkscape:connector-curvature="0" />
    <path
       d="m 339,460.1 c -9.6,1.5 -17.5,2.8 -17.6,2.8 0,0.1 0.2,1.8 0.5,3.8 0.4,2.3 1.3,3.9 2.2,4.1 0.9,0.2 5.5,-0.3 10.3,-1.1 4.7,-0.7 8.8,-1.1 9.1,-0.9 0.3,0.3 0.5,12.7 0.5,27.5 l 0,26.9 2.3,-0.5 c 1.2,-0.3 4.8,-0.9 8,-1.2 l 5.7,-0.7 0,-31.9 c 0,-29.8 -0.1,-31.9 -1.7,-31.8 -1,0.1 -9.7,1.4 -19.3,3 z"
       id="path20"
       style="fill:none;stroke:#000000;stroke-width:0.80000001;stroke-miterlimit:4;stroke-dasharray:none;stroke-opacity:1"
       inkscape:connector-curvature="0" />
    <path
       d="m 121.2,575.8 c -3,1.1 -7.1,3.6 -9.3,5.8 -5.3,5.2 -7.4,11 -7.4,20.9 0,14.9 5.3,21 24.7,28.5 13.1,5 16.8,8.5 16.8,15.6 0,8.3 -4,12.4 -11.8,12.4 -2,0 -4.8,-0.6 -6.2,-1.3 -3.2,-1.6 -6,-7.2 -6,-12 l 0,-3.7 -9.5,0 -9.5,0 0,5.3 c 0,11.8 6,20.8 15.9,24 6.6,2.1 21.9,2.3 28.5,0.3 7,-2.1 12.1,-5.9 15.3,-11.3 2.3,-4 2.8,-6.1 3.1,-13.9 0.3,-5.3 0,-10.6 -0.7,-12.6 -2.1,-6.3 -8.5,-11.2 -23,-17.8 -7.4,-3.3 -14.3,-6.8 -15.3,-7.7 -4.3,-3.8 -4.2,-13.8 0.2,-17.8 1,-0.9 3.9,-2 6.4,-2.2 4,-0.5 4.8,-0.2 7.5,2.5 2,1.9 3.3,4.5 3.7,7.1 l 0.7,4.1 8.8,0 8.9,0 0,-4.4 c 0,-9.4 -4.5,-16.6 -12.9,-20.4 -7.6,-3.5 -21.1,-4.1 -28.9,-1.4 z"
       id="path22"
       style="fill:none;stroke:#000000;stroke-width:0.80000001;stroke-miterlimit:4;stroke-dasharray:none;stroke-opacity:1"
       inkscape:connector-curvature="0" />
    <path
       d="m 468.5,574.9 c -13.2,3.5 -19.3,12.5 -21.6,31.8 -1.3,11 -0.7,34 1.1,42.3 2.3,10.4 7.1,17.4 14.5,21.3 5.6,2.9 21.2,3.6 28.3,1.3 10.6,-3.5 16.7,-13.4 17.9,-28.8 l 0.6,-7.8 -9.7,0 -9.6,0 0,2.7 c 0,1.4 -0.5,5.5 -1.1,9 -1.5,8.6 -4.9,12.3 -11.2,12.3 -9.4,0 -12.1,-7.8 -12,-35.5 0,-10.3 0.5,-20.5 1.2,-23.7 2.2,-10.1 8.5,-14.2 16,-10.4 3.4,1.8 5,5.2 5.8,12.7 l 0.6,5.9 9.3,0 9.4,0 0,-4.5 c 0,-12.2 -4.6,-21.3 -13,-25.9 -4.5,-2.5 -6.6,-2.9 -14.4,-3.2 -5,-0.2 -10.4,0 -12.1,0.5 z"
       id="path24"
       style="fill:none;stroke:#000000;stroke-width:0.80000001;stroke-miterlimit:4;stroke-dasharray:none;stroke-opacity:1"
       inkscape:connector-curvature="0" />
    <path
       d="m 521,624 0,48 9,0 9,0 0,-48 0,-48 -9,0 -9,0 0,48 z"
       id="path26"
       style="fill:none;stroke:#000000;stroke-width:0.80000001;stroke-miterlimit:4;stroke-dasharray:none;stroke-opacity:1"
       inkscape:connector-curvature="0" />
    <path
       d="m 313,589 0,10 -4.5,0 -4.5,0 0,6.5 0,6.5 4.5,0 4.5,0 0,23.2 c 0.1,25.6 0.6,29.9 4.5,33.7 2.4,2.4 3.3,2.6 13.5,2.9 l 11,0.4 0,-6.6 0,-6.6 -3.4,0 c -6.4,0 -6.6,-0.6 -6.6,-25.1 l 0,-21.9 5,0 5,0 0,-6.5 0,-6.5 -5,0 -5,0 0,-10 0,-10 -9.5,0 -9.5,0 0,10 z"
       id="path28"
       style="fill:none;stroke:#000000;stroke-width:0.80000001;stroke-miterlimit:4;stroke-dasharray:none;stroke-opacity:1"
       inkscape:connector-curvature="0" />
    <path
       d="m 187,600.7 c -6.4,3.3 -9.7,8.3 -10.7,16.2 l -0.6,5.1 8.7,0 8.6,0 0,-3.5 c 0,-7.6 9.2,-11.4 14.5,-6 l 2.5,2.4 0,24.8 c 0,14.1 0.5,26.4 1.1,28.5 l 1,3.8 9,0 c 7,0 8.8,-0.3 8.2,-1.3 -0.4,-0.6 -1,-14.3 -1.3,-30.2 -0.5,-27.6 -0.7,-29.2 -2.8,-33.2 -3.5,-6.6 -8.2,-8.6 -21.7,-9.1 -10.5,-0.3 -11.3,-0.2 -16.5,2.5 z"
       id="path30"
       style="fill:none;stroke:#000000;stroke-width:0.80000001;stroke-miterlimit:4;stroke-dasharray:none;stroke-opacity:1"
       inkscape:connector-curvature="0" />
    <path
       d="m 269,599.1 c -1.4,0.6 -4.2,2.6 -6.2,4.7 l -3.8,3.6 0,-4.2 0,-4.3 -8.7,0.3 -8.8,0.3 0,36 0,36 9.2,0.3 9.2,0.3 0.3,-27.5 0.3,-27.4 2.4,-2.6 c 3.2,-3.4 9.8,-3.7 12.7,-0.5 1.8,1.9 1.9,4.2 2.2,30 l 0.3,27.9 9,0 8.9,0 0,-29.9 c 0,-19.6 -0.4,-31 -1.1,-33.2 -1.4,-4 -4.4,-7.6 -8.1,-9.5 -3.1,-1.6 -14,-1.8 -17.8,-0.3 z"
       id="path32"
       style="fill:none;stroke:#000000;stroke-width:0.80000001;stroke-miterlimit:4;stroke-dasharray:none;stroke-opacity:1"
       inkscape:connector-curvature="0" />
    <path
       d="m 362.5,599.5 c -6.1,2.2 -11.1,8.1 -12.5,14.8 -0.6,3.1 -0.9,6.1 -0.5,6.7 0.3,0.5 4.2,1 8.6,1 7.7,0 7.9,-0.1 7.9,-2.5 0,-8.2 9,-12.6 14.5,-7 l 2.5,2.4 0.1,24.8 c 0,16.5 0.4,26 1.2,28.3 l 1.2,3.5 8.9,0.3 c 8.2,0.3 8.8,0.1 8,-1.5 -0.4,-1 -1.1,-14.9 -1.4,-30.8 -0.4,-24.8 -0.8,-29.5 -2.2,-32.2 -2,-3.6 -5.8,-6.5 -10.7,-8.1 -4.7,-1.6 -20.7,-1.4 -25.6,0.3 z"
       id="path34"
       style="fill:none;stroke:#000000;stroke-width:0.80000001;stroke-miterlimit:4;stroke-dasharray:none;stroke-opacity:1"
       inkscape:connector-curvature="0" />
    <path
       d="M 566.1,599.3 C 558.6,601.7 553,610 553,618.8 l 0,3.3 8.2,-0.3 8.3,-0.3 0.6,-3.9 c 1.1,-6.5 6.3,-9.2 12.2,-6.5 4.3,2 4.7,4.5 4.7,30.3 0,15.1 0.4,25.5 1.1,27.5 l 1.1,3.1 8.5,0 8.5,0 -0.7,-2.8 c -0.4,-1.5 -1,-15.5 -1.3,-31.2 -0.5,-19.6 -1.1,-29.2 -1.9,-30.6 -2,-3.4 -7,-7.2 -11.1,-8.4 -4.7,-1.3 -20.7,-1.1 -25.1,0.3 z"
       id="path36"
       style="fill:none;stroke:#000000;stroke-width:0.80000001;stroke-miterlimit:4;stroke-dasharray:none;stroke-opacity:1"
       inkscape:connector-curvature="0" />
    <path
       d="m 643.9,600.3 c -1.8,1.2 -4.4,3.8 -5.6,5.6 l -2.3,3.4 0,-5.2 0,-5.2 -8.7,0.3 -8.8,0.3 0,36 0,36 9.3,0.3 9.2,0.3 0,-24.4 c 0,-23.5 0.1,-24.5 2.2,-27.2 2.7,-3.4 7.5,-5.5 12.8,-5.5 l 4,0 0,-8.5 0,-8.5 -4.4,0 c -2.8,0 -5.5,0.8 -7.7,2.3 z"
       id="path38"
       style="fill:none;stroke:#000000;stroke-width:0.80000001;stroke-miterlimit:4;stroke-dasharray:none;stroke-opacity:1"
       inkscape:connector-curvature="0" />
    <path
       d="m 676.6,599.5 c -7.7,2.7 -12.2,9 -12.8,18 l -0.3,4 8.3,0.3 c 8.2,0.3 8.2,0.3 8.2,-2.2 0,-8.3 9,-12.7 14.5,-7.1 l 2.5,2.4 0.1,24.8 c 0,16.5 0.4,26 1.2,28.3 l 1.2,3.5 8.9,0.3 c 8.2,0.3 8.8,0.2 8,-1.5 -0.4,-1 -1.1,-14.9 -1.4,-30.8 -0.4,-24.3 -0.8,-29.5 -2.1,-32 -2.3,-4.2 -4.8,-6.2 -9.8,-8 -5.5,-1.9 -21.1,-1.9 -26.5,0 z"
       id="path40"
       style="fill:none;stroke:#000000;stroke-width:0.80000001;stroke-miterlimit:4;stroke-dasharray:none;stroke-opacity:1"
       inkscape:connector-curvature="0" />
    <path
       d="m 196.5,629 c -18.6,5.6 -22,9.1 -22,23 0,9.9 2.1,15.1 7.5,18.7 4.5,3.1 15.9,3.3 20.8,0.3 2.9,-1.8 3.2,-2.4 3.2,-7.1 0,-4.5 -0.2,-5 -1.7,-4.4 -5,1.9 -7.2,1.7 -9.7,-0.8 -2.2,-2.2 -2.6,-3.5 -2.6,-8.1 0,-4.8 0.3,-5.7 3,-8 1.7,-1.4 4.9,-3 7,-3.6 l 4,-1.1 0,-5.9 c 0,-3.3 -0.1,-5.9 -0.2,-5.9 -0.2,0.1 -4.3,1.4 -9.3,2.9 z"
       id="path42"
       style="fill:none;stroke:#000000;stroke-width:0.80000001;stroke-miterlimit:4;stroke-dasharray:none;stroke-opacity:1"
       inkscape:connector-curvature="0" />
    <path
       d="m 571.9,629.4 c -5.8,1.8 -12,4.3 -13.8,5.6 -4.8,3.3 -7.1,9 -7.1,17.5 0,8.6 2.7,14.8 8,18.3 3.1,2.1 4.5,2.3 11,2 10.5,-0.4 13,-2.1 13,-8.9 0,-4.5 -0.2,-5 -1.7,-4.4 -4.9,1.8 -7.4,1.7 -9.7,-0.4 -4.4,-4.1 -4.3,-12.1 0,-16.5 1.4,-1.3 4.5,-2.9 6.9,-3.5 l 4.5,-1.1 0,-6 c 0,-3.3 -0.1,-6 -0.2,-5.9 -0.2,0 -5.1,1.5 -10.9,3.3 z"
       id="path44"
       style="fill:none;stroke:#000000;stroke-width:0.80000001;stroke-miterlimit:4;stroke-dasharray:none;stroke-opacity:1"
       inkscape:connector-curvature="0" />
    <path
       d="m 368.5,629.4 c -9.8,2.7 -13.5,4.6 -16.9,8.6 -7.7,9.2 -4.9,28.8 4.8,33.4 4.5,2.1 14.5,2.1 19.1,-0.1 3.4,-1.6 3.5,-1.9 3.5,-7.1 0,-4.7 -0.2,-5.3 -1.7,-4.7 -5,1.9 -7.2,1.7 -9.7,-0.8 -2.1,-2.1 -2.6,-3.6 -2.6,-7.5 0,-6.3 2.5,-9.5 9,-11.7 l 5,-1.7 0,-5.4 c 0,-6.2 0.5,-6.1 -10.5,-3 z"
       id="path46"
       style="fill:none;stroke:#000000;stroke-width:0.80000001;stroke-miterlimit:4;stroke-dasharray:none;stroke-opacity:1"
       inkscape:connector-curvature="0" />
    <path
       d="m 682.5,629.4 c -9.8,2.7 -13.5,4.6 -16.9,8.6 -7,8.4 -5.3,26.4 3.2,32.5 3.8,2.8 15.6,3.4 20.6,1 3.5,-1.7 3.6,-1.9 3.6,-7.2 0,-4.9 -0.2,-5.4 -1.7,-4.8 -4.5,1.9 -7.2,1.7 -9.7,-0.8 -2.1,-2.1 -2.6,-3.6 -2.6,-7.5 0,-6.3 2.5,-9.5 9,-11.7 l 5,-1.7 0,-5.4 c 0,-6.2 0.5,-6.1 -10.5,-3 z"
       id="path48"
       style="fill:none;stroke:#000000;stroke-width:0.80000001;stroke-miterlimit:4;stroke-dasharray:none;stroke-opacity:1"
       inkscape:connector-curvature="0" />
    <path
       d="m 291,710 0,8 9,0 9,0 0,-8 0,-8 -9,0 -9,0 0,8 z"
       id="path50"
       style="fill:none;stroke:#000000;stroke-width:0.80000001;stroke-miterlimit:4;stroke-dasharray:none;stroke-opacity:1"
       inkscape:connector-curvature="0" />
    <path
       d="m 552.2,709.7 0.3,7.8 9.3,0.3 9.2,0.3 0,-8.1 0,-8 -9.5,0 -9.6,0 0.3,7.7 z"
       id="path52"
       style="fill:none;stroke:#000000;stroke-width:0.80000001;stroke-miterlimit:4;stroke-dasharray:none;stroke-opacity:1"
       inkscape:connector-curvature="0" />
    <path
       d="m 149.2,741.7 c 0.3,38 0.3,38.9 2.6,43.8 1.3,2.7 3.3,6 4.5,7.3 6.9,7.5 24.3,10 37.1,5.5 6.3,-2.1 10.6,-6.1 13.5,-12.2 l 2.6,-5.6 0.3,-38.8 0.3,-38.7 -9.6,0 -9.5,0 0,35.7 c 0,21.5 -0.4,37.3 -1,39.5 -1.4,4.9 -5.2,7.8 -10.2,7.8 -5,0 -7.4,-1.3 -9.5,-5.3 -1.6,-2.9 -1.8,-7.1 -2.1,-40.5 l -0.3,-37.2 -9.5,0 -9.5,0 0.3,38.7 z"
       id="path54"
       style="fill:none;stroke:#000000;stroke-width:0.80000001;stroke-miterlimit:4;stroke-dasharray:none;stroke-opacity:1"
       inkscape:connector-curvature="0" />
    <path
       d="m 588,716.5 0,10.5 -4.5,0 -4.5,0 0,6 0,6 4.5,0 4.5,0 0,20.2 c 0.1,25.3 1,33.2 4.2,36.5 2.9,2.9 10.7,4.2 19.3,3.4 l 6,-0.6 0.3,-6.3 0.3,-6.2 -3.9,0 c -7,0 -7.2,-0.7 -7.2,-25.3 l 0,-21.7 5.5,0 5.5,0 0,-6 0,-6 -5.5,0 -5.5,0 0,-10.5 0,-10.5 -9.5,0 -9.5,0 0,10.5 z"
       id="path56"
       style="fill:none;stroke:#000000;stroke-width:0.80000001;stroke-miterlimit:4;stroke-dasharray:none;stroke-opacity:1"
       inkscape:connector-curvature="0" />
    <path
       d="m 250,726.6 c -1.9,0.8 -5,2.9 -6.7,4.6 l -3.3,3.2 0,-3.7 0,-3.7 -8.5,0 -8.5,0 0,36 0,36 9,0 9,0 0,-26 c 0,-27.7 0.4,-30.6 4.9,-33 3.1,-1.6 7.7,-1.2 10.2,0.9 l 2.4,1.9 0.3,28.1 0.3,28.1 8.9,0 9,0 0,-29.9 c 0,-31.1 -0.4,-34.5 -4.4,-39 -4.5,-5 -15.2,-6.7 -22.6,-3.5 z"
       id="path58"
       style="fill:none;stroke:#000000;stroke-width:0.80000001;stroke-miterlimit:4;stroke-dasharray:none;stroke-opacity:1"
       inkscape:connector-curvature="0" />
    <path
       d="m 397.8,726.4 c -12.5,4.5 -16.8,14 -16.8,37.1 0,21 3.5,29.5 13.7,34.2 7,3.2 19.3,3.6 25.8,0.9 8,-3.4 12.8,-10.7 13.7,-20.6 l 0.3,-3.5 -8.2,-0.3 -8.1,-0.3 -0.7,4.3 c -0.9,5.1 -5.2,9.8 -9,9.8 -5.5,0 -9.5,-7.3 -9.5,-17.8 l 0,-5.2 4,0 4,0 0,-5.5 0,-5.5 -4.1,0 -4.2,0 0.6,-5.1 c 0.7,-5.8 3,-9.9 5.8,-10.6 1.6,-0.5 1.9,-1.5 1.9,-6.9 0,-6.3 0,-6.4 -2.7,-6.4 -1.6,0.1 -4.5,0.7 -6.5,1.4 z"
       id="path60"
       style="fill:none;stroke:#000000;stroke-width:0.80000001;stroke-miterlimit:4;stroke-dasharray:none;stroke-opacity:1"
       inkscape:connector-curvature="0" />
    <path
       d="m 411,731.4 c 0,5.4 0.3,6.6 1.8,7.1 2.4,0.7 4.2,4.6 4.9,10.7 l 0.6,4.8 -3.7,0 -3.6,0 0,5.5 0,5.5 12.6,0 12.7,0 -0.7,-9.4 c -0.3,-5.1 -1.3,-11.7 -2.2,-14.7 -2.7,-9.1 -11.3,-15.9 -20.1,-15.9 -2.2,0 -2.3,0.4 -2.3,6.4 z"
       id="path62"
       style="fill:none;stroke:#000000;stroke-width:0.80000001;stroke-miterlimit:4;stroke-dasharray:none;stroke-opacity:1"
       inkscape:connector-curvature="0" />
    <path
       d="m 472.4,726.9 c -1.7,1 -4.3,3.4 -5.7,5.2 l -2.7,3.4 0,-4.3 0,-4.2 -9,0 -9,0 0,36 0,36.1 9.3,-0.3 9.2,-0.3 0.5,-24.7 c 0.5,-24.4 0.5,-24.7 2.9,-27.2 2.9,-3.1 9.1,-5 13.2,-4.1 l 2.9,0.7 0,-9.1 0,-9.1 -4.2,0 c -2.4,0 -5.6,0.8 -7.4,1.9 z"
       id="path64"
       style="fill:none;stroke:#000000;stroke-width:0.80000001;stroke-miterlimit:4;stroke-dasharray:none;stroke-opacity:1"
       inkscape:connector-curvature="0" />
    <path
       d="m 503,726.5 c -5.2,1.7 -11.2,7.4 -12.9,12.4 -2.3,7.1 -0.7,16.6 3.7,21.4 2.2,2.5 7.4,5.1 17.5,8.8 9.4,3.5 12.7,6.1 12.7,10 0,4.1 -0.9,5.8 -4.1,7.4 -7,3.7 -14.9,-0.6 -14.9,-7.9 l 0,-3.6 -8.5,0 -8.5,0 0,2.7 c 0.1,9.1 4.6,17.4 10.8,20 15.1,6.3 34.7,2 40.3,-8.9 4.5,-8.7 2.4,-22.2 -4.1,-27 -1.4,-1 -7.5,-3.7 -13.4,-5.8 -12.9,-4.7 -14.6,-6 -14.6,-11 0,-4.9 2.8,-7.5 8.2,-7.5 4.7,0 7.8,3 7.8,7.6 l 0,2.9 8.6,0 8.7,0 -0.6,-5.5 c -0.7,-7 -3.4,-11.4 -8.9,-14.5 -3.6,-2 -5.9,-2.5 -13.8,-2.7 -6.2,-0.2 -11.1,0.2 -14,1.2 z"
       id="path66"
       style="fill:none;stroke:#000000;stroke-width:0.80000001;stroke-miterlimit:4;stroke-dasharray:none;stroke-opacity:1"
       inkscape:connector-curvature="0" />
    <path
       d="m 291,763 0,36 9,0 9,0 0,-36 0,-36 -9,0 -9,0 0,36 z"
       id="path68"
       style="fill:none;stroke:#000000;stroke-width:0.80000001;stroke-miterlimit:4;stroke-dasharray:none;stroke-opacity:1"
       inkscape:connector-curvature="0" />
    <path
       d="m 318.2,728.7 c 0.3,1 4.4,17.2 9.3,36 l 8.8,34.3 10.7,0 10.7,0 9,-36 9.1,-36 -9.3,0 -9.2,0 -1.6,8.2 c -0.9,4.6 -3,15.9 -4.8,25.1 -1.7,9.2 -3.3,16.6 -3.5,16.4 -0.2,-0.2 -2.4,-10.5 -4.9,-22.8 -2.5,-12.3 -4.7,-23.4 -5,-24.7 -0.5,-2.1 -1,-2.2 -10.1,-2.2 -8.7,0 -9.6,0.2 -9.2,1.7 z"
       id="path70"
       style="fill:none;stroke:#000000;stroke-width:0.80000001;stroke-miterlimit:4;stroke-dasharray:none;stroke-opacity:1"
       inkscape:connector-curvature="0" />
    <path
       d="m 552.2,762.7 0.3,35.8 9.3,0.3 9.2,0.3 0,-36.1 0,-36 -9.5,0 -9.5,0 0.2,35.7 z"
       id="path72"
       style="fill:none;stroke:#000000;stroke-width:0.80000001;stroke-miterlimit:4;stroke-dasharray:none;stroke-opacity:1"
       inkscape:connector-curvature="0" />
    <path
       d="m 620,728 c 0,0.5 4.3,16.4 9.7,35.2 5.3,18.9 9.6,35.4 9.5,36.8 -0.4,5.8 -4.2,9 -10.7,9 l -3.5,0 0,6.5 0,6.5 7.8,0 c 4.2,0 9.4,-0.5 11.4,-1 4.6,-1.3 9,-6.3 11.7,-13.4 1.8,-4.9 21.1,-77.7 21.1,-79.8 0,-0.4 -4,-0.8 -9,-0.8 -8.5,0 -9,0.1 -9.5,2.2 -0.2,1.3 -2.3,12.2 -4.6,24.3 -2.2,12.1 -4.2,22.1 -4.4,22.3 -0.2,0.2 -0.8,-2.1 -1.4,-5 -0.6,-2.9 -3,-14 -5.3,-24.6 l -4.1,-19.2 -9.4,0 c -5.5,0 -9.3,0.4 -9.3,1 z"
       id="path74"
       style="fill:none;stroke:#000000;stroke-width:0.80000001;stroke-miterlimit:4;stroke-dasharray:none;stroke-opacity:1"
       inkscape:connector-curvature="0" />
    <path
       d="m 21.9,903.3 c -6.2,3.3 -8.9,8.3 -8.9,16.8 0,5.2 0.5,7.3 2.3,10 2.9,4.2 7.4,7.3 14,9.5 11.8,3.8 14.7,6.5 14.7,13.9 0,8.7 -11.7,13 -18.1,6.6 -1.6,-1.7 -2.9,-4 -2.9,-5.4 0,-4.9 -0.9,-5.7 -6.1,-5.7 l -4.9,0 0,4.3 c 0,6.4 3.6,12.7 8.9,15.6 8.6,4.7 23.5,2.8 29.3,-3.6 4.9,-5.3 6.2,-15.7 2.9,-22.9 -2.2,-4.8 -5.5,-7 -16.7,-11.3 -10.2,-3.9 -12.7,-6.5 -12.7,-12.8 0,-3.8 0.4,-5 2.7,-7 5.9,-5 15.6,-1.5 15.6,5.7 0,3 0,3 5.6,3 l 5.7,0 -0.5,-5.1 c -1,-9.7 -6.7,-13.9 -18.9,-13.9 -6,0 -8.5,0.5 -12,2.3 z"
       id="path78"
       style="fill:none;stroke:#000000;stroke-width:0.80000001;stroke-miterlimit:4;stroke-dasharray:none;stroke-opacity:1"
       inkscape:connector-curvature="0" />
    <path
       d="m 338.4,902 c -4.1,1.7 -6.4,5.9 -6.4,11.6 l 0,5.4 -3.5,0 c -3.3,0 -3.5,0.2 -3.5,3.5 0,3.3 0.2,3.5 3.5,3.5 l 3.5,0 0,22 0,22 5,0 5,0 0,-22 0,-22 4.5,0 c 4.5,0 4.5,0 4.5,-3.5 0,-3.5 0,-3.5 -4.5,-3.5 -4.5,0 -4.5,0 -4.5,-3.4 0,-3.9 2.8,-6.6 6.8,-6.6 2.1,0 2.3,-0.4 2,-3.8 l -0.3,-3.7 -5,-0.2 c -2.7,-0.1 -6,0.2 -7.1,0.7 z"
       id="path80"
       style="fill:none;stroke:#000000;stroke-width:0.80000001;stroke-miterlimit:4;stroke-dasharray:none;stroke-opacity:1"
       inkscape:connector-curvature="0" />
    <path
       d="m 105,936 0,34 4.9,0 4.9,0 0.4,-19.4 c 0.3,-19.1 0.3,-19.5 2.8,-22.1 2,-2.1 3.2,-2.5 6.4,-2.3 6.1,0.5 6.6,2 6.6,24.5 l 0,19.3 5,0 5,0 0,-22.3 c 0,-20.2 -0.2,-22.5 -2,-25.4 -3.8,-6.3 -13.9,-6.6 -21,-0.7 l -3,2.6 0,-11.1 0,-11.1 -5,0 -5,0 0,34 z"
       id="path82"
       style="fill:none;stroke:#000000;stroke-width:0.80000001;stroke-miterlimit:4;stroke-dasharray:none;stroke-opacity:1"
       inkscape:connector-curvature="0" />
    <path
       d="m 240,936 0,34 5.5,0 5.5,0 0,-34 0,-34 -5.5,0 -5.5,0 0,34 z"
       id="path84"
       style="fill:none;stroke:#000000;stroke-width:0.80000001;stroke-miterlimit:4;stroke-dasharray:none;stroke-opacity:1"
       inkscape:connector-curvature="0" />
    <path
       d="m 379,936 0,34 19,0 19,0 0,-4.5 0,-4.5 -13.5,0 -13.5,0 0,-11 0,-11 12,0 12,0 0,-4.5 0,-4.5 -12,0 -12,0 0,-9.5 0,-9.5 13,0 13,0 0,-4.5 0,-4.5 -18.5,0 -18.5,0 0,34 z"
       id="path86"
       style="fill:none;stroke:#000000;stroke-width:0.80000001;stroke-miterlimit:4;stroke-dasharray:none;stroke-opacity:1"
       inkscape:connector-curvature="0" />
    <path
       d="m 75.1,918 c -5,1.2 -8.3,4 -11.1,9.6 -2.3,4.4 -2.5,6.1 -2.5,16.9 0,10.8 0.2,12.5 2.5,17 2.9,5.8 7.2,9 13.2,9.9 9.6,1.3 16.7,-3 19.3,-11.8 2.4,-8.1 2.3,-8.6 -3.5,-8.6 -4.9,0 -5,0.1 -5,3 0,9.8 -10.1,13.5 -14.3,5.3 -3.5,-6.9 -2.6,-27.6 1.4,-31.9 4.4,-4.7 10.3,-2.6 12,4.1 l 1.1,4.5 5,0 5.1,0 -0.7,-4.2 c -1.4,-8.6 -6.1,-13.2 -14.6,-14.2 -2.5,-0.2 -6,-0.1 -7.9,0.4 z"
       id="path88"
       style="fill:none;stroke:#000000;stroke-width:0.80000001;stroke-miterlimit:4;stroke-dasharray:none;stroke-opacity:1"
       inkscape:connector-curvature="0" />
    <path
       d="m 170,921 c 0,2.9 0.6,4.1 2.5,5.4 3.7,2.4 4.8,7.8 4.4,21.1 l -0.4,11.7 -3.3,2.7 c -2.5,2.2 -3.2,3.5 -3.2,6.3 l 0,3.6 3.7,-1 c 2,-0.5 4.6,-1.6 5.8,-2.4 5.9,-3.9 9.6,-18.8 7.7,-31.4 -1.7,-11.6 -5.7,-17.2 -13.5,-19 l -3.7,-0.8 0,3.8 z"
       id="path90"
       style="fill:none;stroke:#000000;stroke-width:0.80000001;stroke-miterlimit:4;stroke-dasharray:none;stroke-opacity:1"
       inkscape:connector-curvature="0" />
    <path
       d="m 207.5,918 c -8.8,1.8 -12.7,8.8 -13.3,23.4 -0.5,11.7 1,19.4 4.5,23.6 2.9,3.5 7.2,6 10.3,6 3.1,0 2.8,-6.2 -0.5,-8.4 -3.2,-2.1 -4.5,-7.2 -4.5,-17.6 0,-10.2 1.3,-15.5 4.6,-18.5 1.9,-1.8 2.5,-3.2 2.2,-5.7 -0.3,-3.2 -0.5,-3.4 -3.3,-2.8 z"
       id="path92"
       style="fill:none;stroke:#000000;stroke-width:0.80000001;stroke-miterlimit:4;stroke-dasharray:none;stroke-opacity:1"
       inkscape:connector-curvature="0" />
    <path
       d="m 296.1,918.1 c -9.9,2.1 -15.2,14.3 -13.6,31.4 1.2,12.6 5.8,19.7 14.1,21.5 3.4,0.8 3.4,0.7 3.4,-2.6 0,-2.6 -0.8,-4.1 -3.2,-6.3 l -3.3,-2.9 -0.3,-11.2 c -0.5,-14.1 0.2,-17.6 3.9,-21.1 2.4,-2.2 3,-3.5 2.7,-6.2 -0.3,-3.2 -0.4,-3.3 -3.7,-2.6 z"
       id="path94"
       style="fill:none;stroke:#000000;stroke-width:0.80000001;stroke-miterlimit:4;stroke-dasharray:none;stroke-opacity:1"
       inkscape:connector-curvature="0" />
    <path
       d="m 442.7,918.4 c -2.2,0.8 -5,2.4 -6.3,3.7 l -2.4,2.2 0,-2.6 c 0,-2.6 -0.2,-2.7 -5,-2.7 l -5,0 0,25.5 0,25.5 5.5,0 5.5,0 0,-19.4 c 0,-18 0.1,-19.5 2.1,-22 1.6,-2 2.9,-2.6 5.9,-2.6 6.6,0 7,1.4 7,24.2 l 0,19.8 5.6,0 5.6,0 -0.4,-22.3 c -0.3,-19.2 -0.5,-22.7 -2,-25 -3.2,-4.8 -9.8,-6.6 -16.1,-4.3 z"
       id="path96"
       style="fill:none;stroke:#000000;stroke-width:0.80000001;stroke-miterlimit:4;stroke-dasharray:none;stroke-opacity:1"
       inkscape:connector-curvature="0" />
    <path
       d="m 481.6,918 c -8.5,2.6 -12,11.4 -11.4,27.9 0.6,16.2 4.3,22.5 13.6,23.8 2.5,0.3 5,0 7,-1.1 2.8,-1.4 3.2,-2.2 3.2,-5.6 0,-4 0,-4 -2.4,-2.5 -3.3,2.2 -7.3,1 -9.4,-2.9 -1.3,-2.4 -1.7,-5.6 -1.7,-14.3 0,-9.8 0.3,-11.5 2.1,-14 2.3,-3.1 7.5,-4.3 10,-2.2 1.2,1 1.4,0.5 1.4,-2.9 0,-2.2 -0.6,-4.4 -1.2,-5 -1.9,-1.6 -7.9,-2.2 -11.2,-1.2 z"
       id="path98"
       style="fill:none;stroke:#000000;stroke-width:0.80000001;stroke-miterlimit:4;stroke-dasharray:none;stroke-opacity:1"
       inkscape:connector-curvature="0" />
    <path
       d="m 556.4,918 c -1.7,0.6 -4.3,2.2 -5.8,3.6 l -2.6,2.7 0,-2.7 c 0,-2.5 -0.3,-2.6 -5,-2.6 l -5,0 0,25.5 0,25.5 4.9,0 5,0 0.3,-19.4 c 0.3,-19 0.4,-19.5 2.7,-22 1.8,-1.9 3.5,-2.6 6.3,-2.6 6,0 6.8,2.9 6.8,25.5 l 0,18.5 5,0 5,0 0,-21.5 c 0,-27.5 -0.7,-29.7 -10.6,-30.9 -2.2,-0.3 -5.3,-0.1 -7,0.4 z"
       id="path100"
       style="fill:none;stroke:#000000;stroke-width:0.80000001;stroke-miterlimit:4;stroke-dasharray:none;stroke-opacity:1"
       inkscape:connector-curvature="0" />
    <path
       d="m 603,920.9 c 0,3 0.5,4.1 1.8,4.5 2.5,0.8 4.1,4.2 4.4,9.1 0.3,3.8 0.2,4 -2.9,4.3 -3,0.3 -3.3,0.6 -3.3,3.8 l 0,3.4 8.6,0 8.7,0 -0.5,-8.3 c -0.7,-11.1 -4.2,-17.3 -10.8,-19.2 -1.4,-0.3 -3.3,-0.9 -4.2,-1.1 -1.5,-0.5 -1.8,0.1 -1.8,3.5 z"
       id="path102"
       style="fill:none;stroke:#000000;stroke-width:0.80000001;stroke-miterlimit:4;stroke-dasharray:none;stroke-opacity:1"
       inkscape:connector-curvature="0" />
    <path
       d="m 648,920.7 c 0,2.4 0.7,4 2.6,5.7 2.1,1.7 2.8,3.4 3.2,7.4 l 0.5,5.2 -3.2,0 c -2.9,0 -3.1,0.2 -3.1,3.5 l 0,3.5 8.1,0 8.1,0 -0.4,-8.8 C 663.2,924.6 660.2,920 651.5,918 648,917.2 648,917.2 648,920.7 Z"
       id="path104"
       style="fill:none;stroke:#000000;stroke-width:0.80000001;stroke-miterlimit:4;stroke-dasharray:none;stroke-opacity:1"
       inkscape:connector-curvature="0" />
    <path
       d="m 690.4,918.4 c -1.7,0.7 -4,2.9 -5.2,4.7 l -2.2,3.4 0,-3.8 0,-3.7 -5,0 -5,0 0,25.5 0,25.5 5,0 5,0 0,-16.5 c 0,-22.2 1.4,-25.5 11,-25.5 l 4.1,0 -0.3,-5.3 c -0.3,-5.9 -1.8,-6.8 -7.4,-4.3 z"
       id="path106"
       style="fill:none;stroke:#000000;stroke-width:0.80000001;stroke-miterlimit:4;stroke-dasharray:none;stroke-opacity:1"
       inkscape:connector-curvature="0" />
    <path
       d="m 743,918.1 c -1.9,0.6 -4.7,2.2 -6.2,3.7 l -2.8,2.6 0,-2.7 c 0,-2.6 -0.2,-2.7 -5,-2.7 l -5,0 0,25.5 0,25.5 5.5,0 5.5,0 0,-19.4 c 0,-18 0.1,-19.5 2.1,-22 1.6,-2 2.9,-2.6 5.9,-2.6 6.6,0 7,1.4 7,24.2 l 0,19.8 5,0 5,0 0,-21.9 c 0,-12.1 -0.4,-23.1 -1,-24.5 -1.8,-4.9 -9.3,-7.4 -16,-5.5 z"
       id="path108"
       style="fill:none;stroke:#000000;stroke-width:0.80000001;stroke-miterlimit:4;stroke-dasharray:none;stroke-opacity:1"
       inkscape:connector-curvature="0" />
    <path
       d="m 780.5,918.5 c -8,2.9 -10.9,10.4 -10.3,27.3 0.4,13.4 2.1,18.2 7.7,21.9 3.7,2.5 7.2,2.9 12,1.2 2.7,-1 3.1,-1.5 3.1,-4.9 0,-3.8 0,-3.8 -2.9,-2.7 -2.3,0.9 -3.4,0.7 -5.5,-0.6 -3.5,-2.3 -4.8,-8.2 -4.4,-19.3 0.4,-11.7 2.3,-14.9 8.7,-14.9 4.1,0 4.1,0 4.1,-3.7 0,-3.1 -0.4,-3.7 -3.1,-4.7 -4,-1.4 -4.5,-1.3 -9.4,0.4 z"
       id="path110"
       style="fill:none;stroke:#000000;stroke-width:0.80000001;stroke-miterlimit:4;stroke-dasharray:none;stroke-opacity:1"
       inkscape:connector-curvature="0" />
    <path
       d="m 158.2,920 c -4.5,2.8 -6.9,7.2 -8.3,15.3 -3,18.2 3.7,35.7 13.9,35.7 3.4,0 3.1,-5.5 -0.5,-9.3 -2.7,-2.7 -2.8,-3.4 -3.1,-13.9 -0.5,-13.4 0.2,-17.3 3.4,-20.5 1.6,-1.6 2.4,-3.5 2.4,-5.8 0,-3 -0.4,-3.5 -2.2,-3.5 -1.3,0 -3.8,0.9 -5.6,2 z"
       id="path112"
       style="fill:none;stroke:#000000;stroke-width:0.80000001;stroke-miterlimit:4;stroke-dasharray:none;stroke-opacity:1"
       inkscape:connector-curvature="0" />
    <path
       d="m 215,921.2 c 0,2 0.9,4.1 2.5,5.8 6.3,6.6 5.6,33.8 -1,36.3 -0.9,0.4 -1.5,1.9 -1.5,4.2 0,3 0.3,3.5 2.4,3.5 3.8,0 8.9,-4.2 11.6,-9.5 2.3,-4.5 2.5,-6.2 2.5,-17 0,-10.8 -0.2,-12.5 -2.5,-17 -2.7,-5.3 -7.8,-9.5 -11.6,-9.5 -2,0 -2.4,0.5 -2.4,3.2 z"
       id="path114"
       style="fill:none;stroke:#000000;stroke-width:0.80000001;stroke-miterlimit:4;stroke-dasharray:none;stroke-opacity:1"
       inkscape:connector-curvature="0" />
    <path
       d="m 304,921.5 c 0,2.3 0.8,4.2 2.4,5.8 3.2,3.2 3.9,7.1 3.4,20.5 -0.3,10.5 -0.4,11.2 -3,13.9 -3.7,3.8 -3.9,9.3 -0.5,9.3 3.9,0 9.2,-4.5 11.5,-9.7 4,-9.4 3.8,-26.4 -0.5,-35.1 -2,-4.2 -7.4,-8.2 -10.9,-8.2 -2.1,0 -2.4,0.5 -2.4,3.5 z"
       id="path116"
       style="fill:none;stroke:#000000;stroke-width:0.80000001;stroke-miterlimit:4;stroke-dasharray:none;stroke-opacity:1"
       inkscape:connector-curvature="0" />
    <path
       d="m 593.4,919 c -3.8,1.5 -8.2,7.7 -9.4,13.3 -1.9,8.4 -0.9,25.2 1.8,30.4 3.5,6.8 10.3,9.9 19,8.7 7.9,-1.2 13,-6.4 14.6,-15.2 l 0.6,-3.2 -5,0 c -4.7,0 -4.9,0.1 -5.5,3.2 -1.2,6.2 -5.6,9.4 -10.5,7.6 -3.6,-1.2 -5.2,-4.3 -5.8,-11.5 l -0.5,-6.3 3.2,0 c 2.9,0 3.1,-0.2 3.1,-3.5 0,-3.2 -0.2,-3.5 -3,-3.5 -2.7,0 -3,-0.3 -3,-3.3 0,-3.6 2.4,-8.8 4.6,-10 0.8,-0.5 1.4,-2.3 1.4,-4.2 0,-3.7 -1.3,-4.3 -5.6,-2.5 z"
       id="path118"
       style="fill:none;stroke:#000000;stroke-width:0.80000001;stroke-miterlimit:4;stroke-dasharray:none;stroke-opacity:1"
       inkscape:connector-curvature="0" />
    <path
       d="m 635.9,920.3 c -1.9,1.2 -4.5,4.4 -5.9,7.2 -2.3,4.5 -2.5,6.2 -2.5,17.5 0,11.1 0.3,13 2.4,17.3 1.3,2.6 3.4,5.5 4.7,6.4 5.9,3.8 15.9,3.8 21.7,-0.1 3.5,-2.3 7.7,-9.6 7.7,-13.3 0,-2.1 -0.5,-2.3 -4.9,-2.3 l -4.8,0 -0.7,3.8 c -0.9,5.8 -5.4,9 -10.1,7.2 -3.5,-1.3 -5.3,-4.7 -6.1,-11.8 l -0.7,-6.2 3.7,0 c 3.5,0 3.6,-0.1 3.6,-3.5 0,-3.2 -0.2,-3.5 -3,-3.5 -1.7,0 -3.3,-0.6 -3.6,-1.4 -0.9,-2.5 1.6,-9.4 4.1,-11.4 3.5,-2.8 3.6,-8.2 0.1,-8.2 -1.2,0 -3.8,1 -5.7,2.3 z"
       id="path120"
       style="fill:none;stroke:#000000;stroke-width:0.80000001;stroke-miterlimit:4;stroke-dasharray:none;stroke-opacity:1"
       inkscape:connector-curvature="0" />
    <path
       d="m 498,946.4 0,27.5 -3.4,3.5 c -1.8,2 -4.3,3.6 -5.4,3.6 -3.2,0 -7.1,-2.1 -7.7,-4.2 -0.5,-1.4 -1.6,-1.8 -5.6,-1.8 -5.4,0 -5.7,0.5 -3.4,5.4 2.4,5.1 6.8,7.1 15.5,7.1 8.3,0 12.6,-1.8 16.4,-6.8 2,-2.7 2.1,-4.2 2.4,-32.3 l 0.3,-29.4 -4.6,0 -4.5,0 0,27.4 z"
       id="path122"
       style="fill:none;stroke:#000000;stroke-width:0.80000001;stroke-miterlimit:4;stroke-dasharray:none;stroke-opacity:1"
       inkscape:connector-curvature="0" />
    <path
       d="m 517,944.5 0,25.5 5,0 5,0 0,-25.5 0,-25.5 -5,0 -5,0 0,25.5 z"
       id="path124"
       style="fill:none;stroke:#000000;stroke-width:0.80000001;stroke-miterlimit:4;stroke-dasharray:none;stroke-opacity:1"
       inkscape:connector-curvature="0" />
    <path
       d="m 703,944.5 0,25.5 5.5,0 5.5,0 0,-25.5 0,-25.5 -5.5,0 -5.5,0 0,25.5 z"
       id="path126"
       style="fill:none;stroke:#000000;stroke-width:0.80000001;stroke-miterlimit:4;stroke-dasharray:none;stroke-opacity:1"
       inkscape:connector-curvature="0" />
    <path
       d="m 797,947.1 0,28.1 -2.9,2.9 c -1.6,1.6 -3.9,2.9 -5,2.9 -3.1,0 -7,-2.1 -7.6,-4.2 -0.5,-1.4 -1.6,-1.8 -5.6,-1.8 -5.3,0 -5.6,0.4 -3.5,5.5 2.1,5 6.6,7 15.6,7 9.3,0 13.5,-2.1 16.8,-8.5 2.1,-4.3 2.2,-5.4 2.2,-32.2 l 0,-27.8 -5,0 -5,0 0,28.1 z"
       id="path128"
       style="fill:none;stroke:#000000;stroke-width:0.80000001;stroke-miterlimit:4;stroke-dasharray:none;stroke-opacity:1"
       inkscape:connector-curvature="0" />
  </g>
  <circle
     style="opacity:1;fill:none;fill-opacity:1;stroke:#000000;stroke-width:0.7436319;stroke-miterlimit:4;stroke-dasharray:none;stroke-opacity:1"
     id="path4385"
     cx="432"
     cy="432"
     r="412.18817" />
</svg>
